<mxfile host="www.draw.io" modified="2020-02-28T22:32:13.225Z" agent="Mozilla/5.0 (Windows NT 6.3; Win64; x64) AppleWebKit/537.36 (KHTML, like Gecko) Chrome/80.0.3987.122 Safari/537.36" etag="0tLyz0N6F08pgaZxY5zQ" version="12.7.9" type="github">
  <diagram id="bW8LqmMmFKKMqirsRo_a" name="Page-1">
    <mxGraphModel dx="1422" dy="924" grid="1" gridSize="10" guides="1" tooltips="1" connect="1" arrows="1" fold="1" page="1" pageScale="1" pageWidth="1600" pageHeight="1200" math="0" shadow="0">
      <root>
        <mxCell id="0" />
        <mxCell id="1" parent="0" />
        <mxCell id="C8u53YNwapTjj1D6oilC-41" value="&lt;div&gt;&lt;b&gt;&lt;font style=&quot;font-size: 18px&quot;&gt;Raspberry Pi&amp;nbsp; &amp;nbsp;&lt;/font&gt;&lt;/b&gt;&lt;/div&gt;" style="rounded=1;whiteSpace=wrap;html=1;align=right;verticalAlign=top;fillColor=#f5f5f5;strokeColor=#666666;fontColor=#333333;" parent="1" vertex="1">
          <mxGeometry x="470" y="370" width="380" height="190" as="geometry" />
        </mxCell>
        <mxCell id="C8u53YNwapTjj1D6oilC-43" value="" style="edgeStyle=orthogonalEdgeStyle;curved=1;rounded=0;orthogonalLoop=1;jettySize=auto;html=1;endArrow=none;endFill=0;strokeWidth=1;exitX=0.5;exitY=0;exitDx=0;exitDy=0;" parent="1" source="C8u53YNwapTjj1D6oilC-33" target="C8u53YNwapTjj1D6oilC-42" edge="1">
          <mxGeometry relative="1" as="geometry" />
        </mxCell>
        <mxCell id="C8u53YNwapTjj1D6oilC-42" value="&lt;div&gt;&lt;b&gt;&lt;font style=&quot;font-size: 18px&quot;&gt;Web Application&amp;nbsp; &amp;nbsp;&lt;/font&gt;&lt;/b&gt;&lt;/div&gt;" style="rounded=1;whiteSpace=wrap;html=1;align=right;verticalAlign=top;fillColor=#e1d5e7;strokeColor=#9673a6;" parent="1" vertex="1">
          <mxGeometry x="470" y="110" width="380" height="190" as="geometry" />
        </mxCell>
        <mxCell id="C8u53YNwapTjj1D6oilC-6" style="edgeStyle=orthogonalEdgeStyle;rounded=0;orthogonalLoop=1;jettySize=auto;html=1;exitX=0.5;exitY=0;exitDx=0;exitDy=0;endArrow=none;endFill=0;" parent="1" source="C8u53YNwapTjj1D6oilC-3" edge="1">
          <mxGeometry relative="1" as="geometry">
            <mxPoint x="80" y="440" as="targetPoint" />
          </mxGeometry>
        </mxCell>
        <mxCell id="C8u53YNwapTjj1D6oilC-3" value="AVR&lt;br&gt;node" style="rounded=0;whiteSpace=wrap;html=1;fillColor=#dae8fc;strokeColor=#6c8ebf;" parent="1" vertex="1">
          <mxGeometry x="40" y="480" width="80" height="40" as="geometry" />
        </mxCell>
        <mxCell id="C8u53YNwapTjj1D6oilC-7" style="edgeStyle=orthogonalEdgeStyle;rounded=0;orthogonalLoop=1;jettySize=auto;html=1;exitX=0.5;exitY=0;exitDx=0;exitDy=0;endArrow=none;endFill=0;" parent="1" source="C8u53YNwapTjj1D6oilC-4" edge="1">
          <mxGeometry relative="1" as="geometry">
            <mxPoint x="180" y="440" as="targetPoint" />
          </mxGeometry>
        </mxCell>
        <mxCell id="C8u53YNwapTjj1D6oilC-4" value="STM32&lt;br&gt;node" style="rounded=0;whiteSpace=wrap;html=1;fillColor=#dae8fc;strokeColor=#6c8ebf;" parent="1" vertex="1">
          <mxGeometry x="140" y="480" width="80" height="40" as="geometry" />
        </mxCell>
        <mxCell id="C8u53YNwapTjj1D6oilC-8" style="edgeStyle=orthogonalEdgeStyle;rounded=0;orthogonalLoop=1;jettySize=auto;html=1;exitX=0.5;exitY=0;exitDx=0;exitDy=0;endArrow=none;endFill=0;" parent="1" source="C8u53YNwapTjj1D6oilC-5" edge="1">
          <mxGeometry relative="1" as="geometry">
            <mxPoint x="280" y="440" as="targetPoint" />
          </mxGeometry>
        </mxCell>
        <mxCell id="C8u53YNwapTjj1D6oilC-5" value="STM32&lt;br&gt;node" style="rounded=0;whiteSpace=wrap;html=1;fillColor=#dae8fc;strokeColor=#6c8ebf;" parent="1" vertex="1">
          <mxGeometry x="240" y="480" width="80" height="40" as="geometry" />
        </mxCell>
        <mxCell id="C8u53YNwapTjj1D6oilC-9" value="" style="endArrow=none;html=1;strokeWidth=4;entryX=0;entryY=0.5;entryDx=0;entryDy=0;" parent="1" target="C8u53YNwapTjj1D6oilC-31" edge="1">
          <mxGeometry width="50" height="50" relative="1" as="geometry">
            <mxPoint x="20" y="440" as="sourcePoint" />
            <mxPoint x="340" y="440" as="targetPoint" />
          </mxGeometry>
        </mxCell>
        <mxCell id="C8u53YNwapTjj1D6oilC-12" style="edgeStyle=orthogonalEdgeStyle;rounded=0;orthogonalLoop=1;jettySize=auto;html=1;endArrow=none;endFill=0;strokeWidth=1;" parent="1" source="C8u53YNwapTjj1D6oilC-10" edge="1">
          <mxGeometry relative="1" as="geometry">
            <mxPoint x="80" y="440" as="targetPoint" />
          </mxGeometry>
        </mxCell>
        <mxCell id="C8u53YNwapTjj1D6oilC-16" value="" style="edgeStyle=orthogonalEdgeStyle;rounded=0;orthogonalLoop=1;jettySize=auto;html=1;endArrow=none;endFill=0;strokeWidth=1;entryX=0.5;entryY=1.014;entryDx=0;entryDy=0;entryPerimeter=0;exitX=0.5;exitY=0;exitDx=0;exitDy=0;exitPerimeter=0;elbow=vertical;curved=1;dashed=1;dashPattern=1 4;" parent="1" source="C8u53YNwapTjj1D6oilC-10" target="C8u53YNwapTjj1D6oilC-15" edge="1">
          <mxGeometry relative="1" as="geometry" />
        </mxCell>
        <mxCell id="C8u53YNwapTjj1D6oilC-10" value="nRF5&lt;br&gt;gateway" style="whiteSpace=wrap;html=1;shape=mxgraph.basic.pentagon;fillColor=#fff2cc;strokeColor=#d6b656;" parent="1" vertex="1">
          <mxGeometry x="40" y="330" width="80" height="70" as="geometry" />
        </mxCell>
        <mxCell id="C8u53YNwapTjj1D6oilC-15" value="nRF5&lt;br&gt;node" style="whiteSpace=wrap;html=1;shape=mxgraph.basic.pentagon;fillColor=#dae8fc;strokeColor=#6c8ebf;" parent="1" vertex="1">
          <mxGeometry x="70" y="190" width="80" height="70" as="geometry" />
        </mxCell>
        <mxCell id="C8u53YNwapTjj1D6oilC-18" style="edgeStyle=orthogonalEdgeStyle;curved=1;rounded=0;orthogonalLoop=1;jettySize=auto;html=1;endArrow=none;endFill=0;strokeWidth=1;" parent="1" source="C8u53YNwapTjj1D6oilC-17" edge="1">
          <mxGeometry relative="1" as="geometry">
            <mxPoint x="260" y="440" as="targetPoint" />
          </mxGeometry>
        </mxCell>
        <mxCell id="C8u53YNwapTjj1D6oilC-20" value="" style="edgeStyle=orthogonalEdgeStyle;curved=1;rounded=0;orthogonalLoop=1;jettySize=auto;html=1;endArrow=none;endFill=0;strokeWidth=1;dashed=1;dashPattern=1 4;" parent="1" source="C8u53YNwapTjj1D6oilC-17" target="C8u53YNwapTjj1D6oilC-19" edge="1">
          <mxGeometry relative="1" as="geometry" />
        </mxCell>
        <mxCell id="C8u53YNwapTjj1D6oilC-22" value="" style="edgeStyle=orthogonalEdgeStyle;curved=1;rounded=0;orthogonalLoop=1;jettySize=auto;html=1;endArrow=none;endFill=0;strokeWidth=1;exitX=1;exitY=0.365;exitDx=0;exitDy=0;exitPerimeter=0;entryX=0.19;entryY=1;entryDx=0;entryDy=0;entryPerimeter=0;dashed=1;dashPattern=1 4;" parent="1" source="C8u53YNwapTjj1D6oilC-17" target="C8u53YNwapTjj1D6oilC-21" edge="1">
          <mxGeometry relative="1" as="geometry" />
        </mxCell>
        <mxCell id="C8u53YNwapTjj1D6oilC-17" value="nRF5&lt;br&gt;gateway" style="whiteSpace=wrap;html=1;shape=mxgraph.basic.pentagon;fillColor=#fff2cc;strokeColor=#d6b656;" parent="1" vertex="1">
          <mxGeometry x="220" y="330" width="80" height="70" as="geometry" />
        </mxCell>
        <mxCell id="C8u53YNwapTjj1D6oilC-21" value="nRF5&lt;br&gt;node" style="whiteSpace=wrap;html=1;shape=mxgraph.basic.pentagon;fillColor=#dae8fc;strokeColor=#6c8ebf;" parent="1" vertex="1">
          <mxGeometry x="350" y="250" width="80" height="70" as="geometry" />
        </mxCell>
        <mxCell id="C8u53YNwapTjj1D6oilC-24" value="" style="edgeStyle=orthogonalEdgeStyle;curved=1;rounded=0;orthogonalLoop=1;jettySize=auto;html=1;endArrow=none;endFill=0;strokeWidth=1;exitX=1;exitY=0.365;exitDx=0;exitDy=0;exitPerimeter=0;dashed=1;dashPattern=1 4;" parent="1" source="C8u53YNwapTjj1D6oilC-19" target="C8u53YNwapTjj1D6oilC-23" edge="1">
          <mxGeometry relative="1" as="geometry" />
        </mxCell>
        <mxCell id="C8u53YNwapTjj1D6oilC-26" value="" style="edgeStyle=orthogonalEdgeStyle;curved=1;rounded=0;orthogonalLoop=1;jettySize=auto;html=1;endArrow=none;endFill=0;strokeWidth=1;exitX=0;exitY=0.365;exitDx=0;exitDy=0;exitPerimeter=0;entryX=0.488;entryY=1;entryDx=0;entryDy=0;entryPerimeter=0;dashed=1;dashPattern=1 4;" parent="1" source="C8u53YNwapTjj1D6oilC-19" target="C8u53YNwapTjj1D6oilC-25" edge="1">
          <mxGeometry relative="1" as="geometry" />
        </mxCell>
        <mxCell id="C8u53YNwapTjj1D6oilC-19" value="nRF5&lt;br&gt;node" style="whiteSpace=wrap;html=1;shape=mxgraph.basic.pentagon;fillColor=#dae8fc;strokeColor=#6c8ebf;" parent="1" vertex="1">
          <mxGeometry x="240" y="200" width="80" height="70" as="geometry" />
        </mxCell>
        <mxCell id="C8u53YNwapTjj1D6oilC-25" value="nRF5&lt;br&gt;node" style="whiteSpace=wrap;html=1;shape=mxgraph.basic.pentagon;fillColor=#dae8fc;strokeColor=#6c8ebf;" parent="1" vertex="1">
          <mxGeometry x="160" y="100" width="80" height="70" as="geometry" />
        </mxCell>
        <mxCell id="C8u53YNwapTjj1D6oilC-23" value="nRF5&lt;br&gt;node" style="whiteSpace=wrap;html=1;shape=mxgraph.basic.pentagon;fillColor=#dae8fc;strokeColor=#6c8ebf;" parent="1" vertex="1">
          <mxGeometry x="320" y="100" width="80" height="70" as="geometry" />
        </mxCell>
        <mxCell id="C8u53YNwapTjj1D6oilC-35" style="edgeStyle=orthogonalEdgeStyle;curved=1;rounded=0;orthogonalLoop=1;jettySize=auto;html=1;exitX=1;exitY=0.5;exitDx=0;exitDy=0;entryX=0;entryY=0.5;entryDx=0;entryDy=0;endArrow=none;endFill=0;strokeWidth=1;" parent="1" source="C8u53YNwapTjj1D6oilC-31" target="C8u53YNwapTjj1D6oilC-32" edge="1">
          <mxGeometry relative="1" as="geometry" />
        </mxCell>
        <mxCell id="C8u53YNwapTjj1D6oilC-31" value="STM32&lt;br&gt;master" style="rounded=0;whiteSpace=wrap;html=1;fillColor=#f8cecc;strokeColor=#b85450;" parent="1" vertex="1">
          <mxGeometry x="340" y="410" width="100" height="60" as="geometry" />
        </mxCell>
        <mxCell id="C8u53YNwapTjj1D6oilC-36" style="edgeStyle=orthogonalEdgeStyle;curved=1;rounded=0;orthogonalLoop=1;jettySize=auto;html=1;exitX=1;exitY=0.5;exitDx=0;exitDy=0;entryX=0;entryY=0.5;entryDx=0;entryDy=0;endArrow=none;endFill=0;strokeWidth=1;" parent="1" source="C8u53YNwapTjj1D6oilC-32" target="C8u53YNwapTjj1D6oilC-33" edge="1">
          <mxGeometry relative="1" as="geometry" />
        </mxCell>
        <mxCell id="C8u53YNwapTjj1D6oilC-40" style="edgeStyle=orthogonalEdgeStyle;curved=1;rounded=0;orthogonalLoop=1;jettySize=auto;html=1;exitX=0.5;exitY=1;exitDx=0;exitDy=0;entryX=0.5;entryY=0;entryDx=0;entryDy=0;endArrow=none;endFill=0;strokeWidth=1;" parent="1" source="C8u53YNwapTjj1D6oilC-32" target="C8u53YNwapTjj1D6oilC-39" edge="1">
          <mxGeometry relative="1" as="geometry" />
        </mxCell>
        <mxCell id="C8u53YNwapTjj1D6oilC-32" value="Connection&lt;br&gt;manager" style="rounded=0;whiteSpace=wrap;html=1;" parent="1" vertex="1">
          <mxGeometry x="490" y="410" width="100" height="60" as="geometry" />
        </mxCell>
        <mxCell id="C8u53YNwapTjj1D6oilC-37" style="edgeStyle=orthogonalEdgeStyle;curved=1;rounded=0;orthogonalLoop=1;jettySize=auto;html=1;exitX=1;exitY=0.5;exitDx=0;exitDy=0;entryX=0;entryY=0.5;entryDx=0;entryDy=0;endArrow=none;endFill=0;strokeWidth=1;" parent="1" source="C8u53YNwapTjj1D6oilC-33" target="C8u53YNwapTjj1D6oilC-34" edge="1">
          <mxGeometry relative="1" as="geometry" />
        </mxCell>
        <mxCell id="C8u53YNwapTjj1D6oilC-33" value="WebSocket&lt;br&gt;HTTP&lt;br&gt;server" style="rounded=0;whiteSpace=wrap;html=1;" parent="1" vertex="1">
          <mxGeometry x="610" y="410" width="100" height="60" as="geometry" />
        </mxCell>
        <mxCell id="C8u53YNwapTjj1D6oilC-34" value="Build&lt;br&gt;toolchain" style="rounded=0;whiteSpace=wrap;html=1;" parent="1" vertex="1">
          <mxGeometry x="730" y="410" width="100" height="60" as="geometry" />
        </mxCell>
        <mxCell id="C8u53YNwapTjj1D6oilC-39" value="History" style="shape=cylinder;whiteSpace=wrap;html=1;boundedLbl=1;backgroundOutline=1;" parent="1" vertex="1">
          <mxGeometry x="510" y="480" width="60" height="60" as="geometry" />
        </mxCell>
        <mxCell id="C8u53YNwapTjj1D6oilC-44" value="Signal&lt;br&gt;Browser" style="rounded=0;whiteSpace=wrap;html=1;fillColor=#f5f5f5;strokeColor=#666666;fontColor=#333333;" parent="1" vertex="1">
          <mxGeometry x="490" y="220" width="100" height="60" as="geometry" />
        </mxCell>
        <mxCell id="C8u53YNwapTjj1D6oilC-45" value="Network&lt;br&gt;Manager" style="rounded=0;whiteSpace=wrap;html=1;fillColor=#f5f5f5;strokeColor=#666666;fontColor=#333333;" parent="1" vertex="1">
          <mxGeometry x="610" y="220" width="100" height="60" as="geometry" />
        </mxCell>
        <mxCell id="C8u53YNwapTjj1D6oilC-46" value="C++&lt;br&gt;Editor" style="rounded=0;whiteSpace=wrap;html=1;fillColor=#f5f5f5;strokeColor=#666666;fontColor=#333333;" parent="1" vertex="1">
          <mxGeometry x="730" y="220" width="100" height="60" as="geometry" />
        </mxCell>
        <mxCell id="C8u53YNwapTjj1D6oilC-47" value="Diagnostics" style="rounded=0;whiteSpace=wrap;html=1;fillColor=#f5f5f5;strokeColor=#666666;fontColor=#333333;" parent="1" vertex="1">
          <mxGeometry x="490" y="150" width="100" height="60" as="geometry" />
        </mxCell>
        <mxCell id="C8u53YNwapTjj1D6oilC-48" value="Visualizer&lt;br&gt;&lt;font style=&quot;font-size: 10px&quot;&gt;(viewer and editor)&lt;/font&gt;" style="rounded=0;whiteSpace=wrap;html=1;fillColor=#f5f5f5;strokeColor=#666666;fontColor=#333333;" parent="1" vertex="1">
          <mxGeometry x="610" y="150" width="100" height="60" as="geometry" />
        </mxCell>
      </root>
    </mxGraphModel>
  </diagram>
</mxfile>
